<svg width="71" height="71" viewBox="0 0 71 71" fill="none" xmlns="http://www.w3.org/2000/svg">
<path d="M38.4585 8.875C23.7556 8.875 11.8335 20.7971 11.8335 35.5H2.9585L14.4664 47.0079L14.6735 47.4221L26.6252 35.5H17.7502C17.7502 24.0512 27.0097 14.7917 38.4585 14.7917C49.9072 14.7917 59.1668 24.0512 59.1668 35.5C59.1668 46.9487 49.9072 56.2083 38.4585 56.2083C32.7489 56.2083 27.5718 53.8713 23.8443 50.1142L19.6435 54.315C24.4656 59.1371 31.0922 62.125 38.4585 62.125C53.1614 62.125 65.0835 50.2029 65.0835 35.5C65.0835 20.7971 53.1614 8.875 38.4585 8.875ZM35.5002 23.6667V38.4583L48.0731 45.9133L50.351 42.1267L39.9377 35.9437V23.6667H35.5002Z" fill="#323232"/>
</svg>
