<svg width="48" height="41" viewBox="0 0 48 41" fill="none" xmlns="http://www.w3.org/2000/svg">
<path d="M27 0C15.8175 0 6.75 9.06751 6.75 20.25H0L8.75249 29.0025L8.91 29.3175L18 20.25H11.25C11.25 11.5425 18.2925 4.50003 27 4.50003C35.7075 4.50003 42.75 11.5425 42.75 20.25C42.75 28.9575 35.7075 36 27 36C22.6575 36 18.72 34.2225 15.885 31.365L12.69 34.56C16.3575 38.2275 21.3975 40.5 27 40.5C38.1825 40.5 47.25 31.4325 47.25 20.25C47.25 9.06751 38.1825 0 27 0ZM24.75 11.25V22.5L34.3125 28.17L36.045 25.29L28.125 20.5875V11.25H24.75Z" fill="white"/>
</svg>
